<?xml version="1.0" encoding="UTF-8" standalone="no"?><!DOCTYPE svg PUBLIC "-//W3C//DTD SVG 1.1//EN" "http://www.w3.org/Graphics/SVG/1.1/DTD/svg11.dtd"><svg width="100%" height="100%" viewBox="0 0 209 209" version="1.1" xmlns="http://www.w3.org/2000/svg" xmlns:xlink="http://www.w3.org/1999/xlink" xml:space="preserve" xmlns:serif="http://www.serif.com/" style="fill-rule:evenodd;clip-rule:evenodd;stroke-linejoin:round;stroke-miterlimit:2;"><g><path d="M97.572,16.573c-0.456,0.048 -1.971,0.216 -3.365,0.361c-14.569,1.538 -29.715,7.476 -41.832,16.396c-6.635,4.88 -13.319,11.443 -18.175,17.838c-15.122,19.906 -20.964,45.702 -15.963,70.561c5.217,25.916 22.574,48.755 46.159,60.704c9.28,4.688 18.463,7.525 29.089,8.943c4.64,0.625 16.781,0.625 21.397,0c19.473,-2.644 36.519,-10.818 50.318,-24.209c14.93,-14.449 24.017,-33.153 26.253,-54.021c0.457,-4.183 0.529,-13.126 0.144,-17.021c-2.812,-28.08 -18.415,-52.866 -42.336,-67.243c-10.458,-6.299 -21.781,-10.193 -34.427,-11.876c-2.765,-0.361 -15.05,-0.673 -17.262,-0.433Zm17.911,8.967c21.277,3.294 39.428,14.064 52.049,30.917c8.919,11.925 13.968,24.763 15.651,39.909c0.385,3.389 0.385,12.212 -0,15.626c-1.13,10.17 -3.654,18.824 -7.982,27.527c-4.519,9.016 -10.289,16.709 -17.381,23.128l-2.597,2.38l-1.683,-2.837c-9.496,-15.891 -25.483,-26.109 -43.827,-27.984c-3.87,-0.384 -10.914,-0.168 -14.665,0.481c-11.996,2.044 -22.671,7.477 -31.157,15.891c-3.919,3.871 -6.539,7.309 -9.496,12.357l-1.251,2.14l-2.5,-2.284c-6.707,-6.13 -12.982,-14.376 -17.141,-22.55c-4.448,-8.775 -7.02,-17.406 -8.318,-28.008c-0.385,-3.102 -0.385,-12.742 -0,-15.988c2.163,-18.68 9.496,-34.403 22.021,-47.337c12.862,-13.246 29.811,-21.589 48.203,-23.728c4.375,-0.505 15.771,-0.289 20.074,0.36Z" style="fill-rule:nonzero;"/><path d="M98.414,61.77c-10.338,1.851 -19.233,8.559 -24.017,18.055c-7.357,14.713 -2.669,32.792 10.914,42.12c5.746,3.943 11.925,5.866 18.873,5.866c3.967,0 6.9,-0.48 10.386,-1.634c11.347,-3.799 19.689,-13.151 22.214,-24.883c0.769,-3.582 0.769,-9.857 0.024,-13.415c-2.933,-13.559 -13.536,-23.801 -27.071,-26.133c-2.668,-0.456 -8.703,-0.432 -11.323,0.024Z" style="fill-rule:nonzero;"/></g></svg>